<svg xmlns="http://www.w3.org/2000/svg" viewBox="0 0 66.26 66.58"><defs><style>.cls-1{fill:#231f20;}.cls-2{fill:#21409a;}.cls-3{fill:#ed1c24;}</style></defs><g id="Layer_2" data-name="Layer 2"><g id="Layer_1-2" data-name="Layer 1"><path class="cls-1" d="M2.41,35.79c3.22,0,3.23-5,0-5s-3.22,5,0,5Z"/><path class="cls-1" d="M33.13,66.58c3.22,0,3.22-5,0-5s-3.22,5,0,5Z"/><path class="cls-1" d="M63.84,35.79c3.22,0,3.22-5,0-5s-3.22,5,0,5Z"/><path class="cls-1" d="M33.13,5c3.22,0,3.22-5,0-5s-3.22,5,0,5Z"/><path class="cls-1" d="M33.13,34.54a1.25,1.25,0,0,0,0-2.5,1.25,1.25,0,0,0,0,2.5Z"/><rect class="cls-2" x="5.81" y="31.98" width="25.51" height="2.63" rx="1" transform="translate(37.12 66.58) rotate(-180)"/><rect class="cls-3" x="34.94" y="31.98" width="25.51" height="2.63" rx="1"/></g></g></svg>